<svg width="212" height="81" viewBox="0 0 212 81" fill="none" xmlns="http://www.w3.org/2000/svg">
<g clip-path="url(#clip0_2637_4533)">
<path d="M38.2554 16.8848H34.8398V22.6809L38.2554 21.1187V16.8848Z" fill="#F8F3E3"/>
<path d="M4.04834 30.7255L6.92653 32.0468V52.6399C6.92653 52.8662 6.94126 53.0925 6.9707 53.3115C7.08848 54.2678 7.44917 55.1729 8.01598 55.9321L6.90445 55.1218C5.02737 53.7495 4.04098 51.5814 4.04098 49.2235V30.7328L4.04834 30.7255ZM4.04834 13.6656H7.46389V24.2285C7.46389 24.6081 7.68473 24.9585 8.03806 25.1118L10.8721 26.4039V13.6583H14.2876V31.6745L5.36598 27.6011C4.55625 27.2288 4.04098 26.4258 4.04098 25.5425V13.651L4.04834 13.6656ZM15.6274 36.0179L18.5129 37.3392V63.327L15.6274 61.2611V36.0179ZM17.7326 26.8784L21.1556 28.4479V31.3168L22.856 32.0979L24.5564 31.3168V26.4623L19.0576 23.9512C18.2479 23.5789 17.7326 22.7759 17.7326 21.8999V15.089C17.7326 14.3006 18.3804 13.6583 19.1754 13.6583H26.5365C27.3315 13.6583 27.9793 14.3006 27.9793 15.089V20.9144L24.5564 19.3449V16.8775H21.1482V21.1042L26.647 23.6081C27.4567 23.9804 27.9793 24.7833 27.9793 25.6666V31.8351C27.9793 32.6892 27.4788 33.463 26.6911 33.8207L22.8486 35.5726L19.0061 33.8207C18.2258 33.463 17.7253 32.6892 17.7253 31.8351V26.8784H17.7326ZM30.092 61.2976L27.2064 63.3635V37.3465L30.092 36.0325V61.2976ZM31.417 15.1328C31.417 14.3225 32.0795 13.6583 32.9039 13.6583H41.671V25.6228C41.671 26.4842 41.1631 27.2653 40.3754 27.623L38.2554 28.5866V24.8344L35.4582 26.1119C35.0828 26.2798 34.8399 26.6521 34.8399 27.0609V30.1415L31.417 31.6891V15.1182V15.1328ZM38.8149 55.1218L37.7033 55.9321C38.2701 55.1729 38.6308 54.2678 38.7486 53.3115C38.7781 53.0852 38.7928 52.8662 38.7928 52.6399V32.0468L41.671 30.7255V49.2162C41.671 51.5814 40.692 53.7495 38.8149 55.1145V55.1218ZM35.8851 57.1512L32.9996 59.2171V34.7112L35.8851 33.3973V57.1439V57.1512ZM24.3061 65.4439L22.8928 66.4586L21.4206 65.4074V38.6678L22.8633 39.3248L24.3135 38.6678V65.4512L24.3061 65.4439ZM12.7197 59.1806L9.83417 57.1147V33.3754L12.7197 34.6966V59.1879V59.1806ZM1.12598 48.5957C1.12598 52.3917 2.98834 55.9759 6.09473 58.1878L22.8633 70.0794L39.6246 58.1878C42.7383 55.9832 44.5933 52.399 44.5933 48.603V10.6653H1.12598V48.5957Z" fill="#F8F3E3"/>
<path d="M9.83398 57.1146L12.7195 59.1805V34.6892L9.83398 33.3752V57.1146Z" fill="#BF062F"/>
<path d="M18.5135 37.3391L15.6279 36.0178V61.261L18.5135 63.3269V37.3391Z" fill="#BF062F"/>
<path d="M21.4131 38.6677V65.4073L22.8853 66.4585L24.306 65.4438V38.6604L22.8559 39.3247L21.4131 38.6677Z" fill="#BF062F"/>
<path d="M27.207 63.3634L30.0926 61.2975V36.0325L27.207 37.3465V63.3634Z" fill="#BF062F"/>
<path d="M33 59.2171L35.8856 57.1512V33.3972L33 34.7112V59.2171Z" fill="#BF062F"/>
<path d="M6.90494 55.1218L8.01647 55.9321C7.44966 55.1729 7.08897 54.2677 6.97119 53.3114C6.94175 53.0851 6.92702 52.8661 6.92702 52.6398V32.0468L4.04883 30.7255V49.2162C4.04883 51.5814 5.02786 53.7494 6.90494 55.1145V55.1218Z" fill="#BF062F"/>
<path d="M38.7857 32.0468V52.6399C38.7857 52.8662 38.771 53.0925 38.7416 53.3115C38.6238 54.2678 38.2631 55.173 37.6963 55.9321L38.8078 55.1219C40.6849 53.7495 41.6713 51.5814 41.6713 49.2235V30.7328L38.7857 32.0541V32.0468Z" fill="#BF062F"/>
<path d="M19.0137 33.8206L22.8562 35.5726L26.6987 33.8206C27.479 33.4629 27.9869 32.6891 27.9869 31.835V25.6666C27.9869 24.7833 27.4643 23.9803 26.6545 23.608L21.1558 21.1041V16.8775H24.564V19.3448L27.9869 20.9143V15.089C27.9869 14.3006 27.3391 13.6582 26.5441 13.6582H19.183C18.388 13.6582 17.7402 14.3006 17.7402 15.089V21.8998C17.7402 22.7831 18.2555 23.5861 19.0652 23.9511L24.564 26.4623V31.3167L22.8636 32.0978L21.1632 31.3167V28.4479L17.7402 26.8784V31.835C17.7402 32.6891 18.2408 33.4629 19.0211 33.8206H19.0137Z" fill="#1E2945"/>
<path d="M34.8404 16.8848H38.2559V21.1188L34.8404 22.6737V16.8775V16.8848ZM34.8404 27.0755C34.8404 26.6667 35.0833 26.2944 35.4587 26.1265L38.2633 24.849V28.6012L40.3833 27.6376C41.1709 27.2799 41.6788 26.4988 41.6788 25.6374V13.6729H32.9117C32.0947 13.6729 31.4248 14.3298 31.4248 15.1474V31.7183L34.8477 30.1707V27.0901L34.8404 27.0755Z" fill="#1E2945"/>
<path d="M5.3733 27.6084L14.295 31.6818V13.6655H10.8794V26.4112L8.04539 25.1191C7.69941 24.9585 7.47122 24.6154 7.47122 24.2358V13.6728H4.05566V25.5644C4.05566 26.4477 4.57094 27.2507 5.38066 27.623L5.3733 27.6084Z" fill="#1E2945"/>
<path d="M44.5936 48.603C44.5936 52.3989 42.7386 55.9832 39.6249 58.1878L22.8636 70.0793L6.095 58.1878C2.98125 55.9832 1.12625 52.3916 1.12625 48.5957V10.6652H44.5936V48.603ZM0 9.54834V48.5957C0 52.7493 2.03167 56.6767 5.43986 59.0929L22.8636 71.4517L40.28 59.0929C43.6882 56.6767 45.7199 52.7493 45.7199 48.5957V9.54834H0Z" fill="#1E2945"/>
<path d="M56.5697 0H56.0029V81H56.5697V0Z" fill="#F8F3E3"/>
<path d="M209.644 48.3693C208.37 48.3693 207.288 49.2599 207.288 50.6979C207.288 52.136 208.37 53.0266 209.644 53.0266C210.917 53.0266 211.999 52.136 211.999 50.6979C211.999 49.2599 210.917 48.3693 209.644 48.3693ZM209.644 52.7346C208.547 52.7346 207.619 51.9608 207.619 50.6979C207.619 49.435 208.547 48.6613 209.644 48.6613C210.74 48.6613 211.668 49.435 211.668 50.6979C211.668 51.9608 210.74 52.7346 209.644 52.7346ZM210.601 50.1358C210.601 49.6686 210.284 49.4059 209.71 49.4059H208.812V51.9462H209.231V50.8731H209.644L210.225 51.9462H210.704L210.063 50.8439C210.402 50.7344 210.608 50.4789 210.608 50.1358M209.231 49.7563H209.71C210.034 49.7563 210.188 49.8803 210.188 50.1431C210.188 50.384 210.019 50.5227 209.71 50.5227H209.231V49.7563Z" fill="#F8F3E3"/>
<path d="M197.079 53.0266H204.241C204.705 53.0266 204.94 52.8368 204.94 52.4134C204.94 52.0703 204.668 51.8002 204.44 51.4134C204.094 50.7637 203.976 50.26 203.976 48.6905V34.6454C203.976 33.7986 203.858 33.6088 202.931 33.6088H197.513C196.703 33.6088 196.431 33.9154 196.431 34.3753C196.431 34.7987 196.703 35.1053 196.931 35.5652C197.277 36.2587 197.358 36.9449 197.358 38.4852V48.6905C197.358 50.2673 197.241 50.7637 196.895 51.4134C196.659 51.8002 196.394 52.063 196.394 52.4134C196.394 52.8368 196.63 53.0266 197.093 53.0266H197.079ZM196.578 29.0829C196.578 30.9663 198.013 32.4992 200.45 32.4992C202.887 32.4992 204.322 30.9663 204.322 29.0829C204.322 27.1995 202.894 25.6665 200.45 25.6665C198.006 25.6665 196.578 27.163 196.578 29.0829ZM183.807 52.4134C183.807 52.0703 183.534 51.8002 183.306 51.4134C182.96 50.7637 182.842 50.26 182.842 48.6905V40.3248C182.842 38.2516 184.079 36.5288 185.588 36.5288C186.906 36.5288 187.678 37.4486 187.678 39.2517V48.6905C187.678 50.2673 187.561 50.7637 187.215 51.4134C186.979 51.8002 186.714 52.063 186.714 52.4134C186.714 52.8368 186.95 53.0266 187.369 53.0266H194.605C195.069 53.0266 195.305 52.8368 195.305 52.4134C195.305 52.0703 195.032 51.8002 194.804 51.4134C194.414 50.7637 194.34 50.26 194.34 48.6905V39.478C194.34 35.8353 192.25 33.2219 188.422 33.2219C185.485 33.2219 183.505 35.1053 182.658 36.6748V34.6381C182.658 33.7913 182.54 33.6015 181.613 33.6015H176.387C175.577 33.6015 175.304 33.9081 175.304 34.368C175.304 34.7914 175.577 35.098 175.805 35.5579C176.195 36.2514 176.232 36.9376 176.232 38.4779V48.6832C176.232 50.26 176.114 50.7564 175.768 51.406C175.54 51.7929 175.268 52.0557 175.268 52.4061C175.268 52.8295 175.503 53.0193 175.967 53.0193H183.166C183.593 53.0193 183.821 52.8295 183.821 52.4061L183.807 52.4134ZM163.954 50.3403C162.445 50.3403 161.591 49.0774 161.591 47.6174C161.591 45.3544 163.291 43.6608 166.854 42.9746L166.817 47.194C166.817 48.8438 165.58 50.3403 163.954 50.3403ZM170.417 53.4135C172.971 53.4135 174.325 52.8368 174.325 52.0338C174.325 51.6907 174.171 51.5374 173.898 51.3039C173.508 50.9608 173.199 50.6907 173.199 49.2672L173.236 40.0182C173.236 35.8718 170.718 33.1124 164.41 33.1124C158.992 33.1124 156.247 35.3024 156.247 38.1786C156.247 40.0985 157.564 41.2081 159.228 41.2081C161.046 41.2081 162.091 39.9452 162.091 38.675C162.091 37.6749 161.745 37.215 161.745 36.5653C161.745 35.9156 162.481 35.2586 163.836 35.2586C165.89 35.2586 166.854 36.6383 166.854 39.0984V40.8285C159.036 41.5219 155.555 43.8579 155.555 47.9678C155.555 51.1506 157.954 53.5303 161.517 53.5303C164.381 53.5303 166.125 51.9535 166.854 50.6104C166.935 52.4134 167.59 53.4135 170.417 53.4135ZM143.401 36.7916C145.956 36.7916 147.428 39.7116 147.428 44.5441C147.428 49.0701 145.838 51.2965 143.909 51.2965C142.363 51.2965 141.164 49.7636 141.164 47.7634V39.4707C141.164 37.7406 141.973 36.7843 143.409 36.7843L143.401 36.7916ZM154.436 42.741C154.436 36.9084 151.572 33.1489 146.891 33.1489C143.909 33.1489 142.01 34.6819 141.164 36.2587V28.5427C141.164 27.6959 141.046 27.5426 140.118 27.5426H134.855C134.001 27.5426 133.692 27.8492 133.692 28.3894C133.692 28.8493 133.92 29.1559 134.082 29.5428C134.355 30.3093 134.509 30.9225 134.509 32.4627V46.6246C134.509 50.0045 134.355 51.0411 134.355 52.0338C134.355 52.8806 134.818 53.3405 135.709 53.3405C136.291 53.3405 136.99 53.1069 137.564 52.8806C137.991 52.7273 138.374 52.6908 138.683 52.6908C138.992 52.6908 139.537 52.7638 140.074 52.9244C141.083 53.1945 142.4 53.5011 143.909 53.5011C150.564 53.5011 154.436 49.3913 154.436 42.7556V42.741ZM125.529 44.2375C125.529 48.5737 124.447 51.2965 122.474 51.2965C120.383 51.2965 118.911 48.4569 118.911 42.3176C118.911 38.018 120.03 35.3316 121.966 35.3316C124.056 35.3316 125.529 38.0983 125.529 44.2375ZM132.338 43.3177C132.338 36.5215 128.002 33.1489 122.275 33.1489C116.548 33.1489 112.058 37.0252 112.058 43.3177C112.058 49.6103 116.393 53.4865 122.194 53.4865C127.995 53.4865 132.33 49.6468 132.33 43.3177H132.338ZM99.2863 52.4134C99.2863 52.0703 99.0139 51.8002 98.7857 51.4134C98.4397 50.7637 98.322 50.26 98.322 48.6905V40.3248C98.322 38.2516 99.7132 36.5653 101.185 36.5653C102.503 36.5653 103.239 37.5654 103.239 39.2517V48.6905C103.239 50.2673 103.121 50.7637 102.775 51.4134C102.54 51.8002 102.275 52.063 102.275 52.4134C102.275 52.8368 102.51 53.0266 102.93 53.0266H110.166C110.63 53.0266 110.865 52.8368 110.865 52.4134C110.865 52.0703 110.593 51.8002 110.365 51.4134C109.975 50.7637 109.901 50.26 109.901 48.6905V39.2882C109.901 35.755 107.774 33.2219 103.938 33.2219C101.149 33.2219 99.1759 35.0615 98.3293 36.558V28.5354C98.3293 27.6886 98.2115 27.5353 97.284 27.5353H92.0577C91.2038 27.5353 90.8946 27.8419 90.8946 28.3821C90.8946 28.842 91.1302 29.1486 91.2847 29.5355C91.5571 30.302 91.7117 30.9152 91.7117 32.4554V48.6905C91.7117 50.2673 91.5939 50.7637 91.2479 51.4134C91.0124 51.8002 90.7474 52.063 90.7474 52.4134C90.7474 52.8368 90.9829 53.0266 91.4467 53.0266H98.6458C99.0728 53.0266 99.301 52.8368 99.301 52.4134H99.2863ZM79.9781 29.7326C81.6417 29.7326 82.4956 30.4261 82.4956 31.4626C82.4956 32.2291 81.8772 32.8861 81.8772 34.1855C81.8772 36.1419 83.2685 37.6384 85.5136 37.6384C87.8765 37.6384 89.4224 36.0251 89.4224 33.492C89.4224 29.9224 86.5957 27.0462 80.1695 27.0462C72.3888 27.0462 66.8164 32.6087 66.8164 40.5949C66.8164 48.581 71.4613 53.6033 79.3524 53.6033C85.8154 53.6033 89.761 49.457 89.761 44.4273C89.761 42.741 89.2163 42.2373 88.5243 42.2373C87.7882 42.2373 87.56 42.887 87.3613 43.2739C86.316 45.3471 84.5346 47.4933 80.7804 47.4933C76.2902 47.4933 73.5813 43.7338 73.5813 38.4341C73.5813 33.1343 76.5257 29.7253 79.9634 29.7253L79.9781 29.7326Z" fill="#F8F3E3"/>
</g>
<defs>
<clipPath id="clip0_2637_4533">
<rect width="212" height="81" fill="white"/>
</clipPath>
</defs>
</svg>
