<svg width="136" height="176" viewBox="0 0 136 176" fill="none" xmlns="http://www.w3.org/2000/svg">
<g clip-path="url(#clip0_3170_3305)">
<path d="M26.7015 159.395C24.3944 152.878 22.4528 146.832 20.9986 140.396C20.2106 136.914 20.4381 123.71 17.1398 122.825C13.3542 123.109 8.20369 123.158 5.52285 122.2C4.8892 121.973 4.43427 119.53 4.90544 119.067C6.8714 117.152 14.7758 116.698 16.7986 116.779C24.7518 117.095 31.2183 115.139 38.7084 114.49L64.4689 112.242L89.222 111.682C94.6325 111.56 121.311 109.312 123.09 113.662C123.618 114.961 123.342 118.369 122.05 118.524L112.277 119.481C109.093 141.256 112.992 156.108 100.392 175.878L40.3332 176.008C36.2307 167.908 28.8218 165.384 26.7096 159.411L26.7015 159.395Z" fill="#1A3C34"/>
<path d="M42.1295 55.5286C30.1307 55.3826 16.2472 52.1281 7.53851 45.327C4.37836 42.8598 2.648 36.8785 6.96172 34.7034C9.61007 33.3724 14.5249 34.257 18.4569 33.9892C16.564 30.2072 13.6151 25.7111 15.3292 21.6613C16.564 18.7477 22.3319 19.0399 24.8665 20.1517C31.9992 23.2682 36.3698 27.9997 39.9686 34.0055C43.0719 39.1915 46.3701 44.1259 49.9446 49.0928C51.3987 51.1055 52.7148 52.6394 52.7392 55.6585L42.1214 55.5286H42.1295Z" fill="#FF4814"/>
<path d="M102.385 92.4717C103.01 95.5233 103.53 97.4224 103.709 99.4919C103.855 101.139 101.045 104.183 98.4693 103.931C90.378 103.16 82.5142 77.4331 82.0918 70.2749C93.8225 73.5943 103.587 78.6829 112.645 85.1107C114.668 86.5472 116.203 90.0451 115.805 92.1308C115.472 93.9082 112.312 95.8154 109.615 96.205C107.617 96.4972 105.504 94.3952 102.385 92.4717Z" fill="#FF4814"/>
<path d="M126.171 31.2702C127.032 40.3437 107.494 34.8087 101.019 34.7032C105.203 28.4946 110.605 24.2095 118.055 22.3509C119.428 22.0101 122.604 22.8379 122.759 23.966C122.945 25.3213 121.946 27.2529 120.768 28.6975L126.171 31.2784V31.2702Z" fill="#FF4814"/>
<path d="M0.429931 65.4218C-0.431189 56.3483 19.1065 61.8832 25.5811 61.9888C21.3974 68.1974 15.9951 72.4825 8.54558 74.3411C7.17266 74.6819 3.99626 73.8541 3.84191 72.726C3.65507 71.3707 4.65429 69.4391 5.83224 67.9945L0.429931 65.4136V65.4218Z" fill="#F1B9AA"/>
<path d="M50.3416 81.8319C50.5771 81.8319 50.7802 81.8562 50.9671 81.8238C51.9419 81.6533 52.9249 81.5154 53.8835 81.2881C55.1833 80.9878 56.5075 80.7768 57.8398 80.6226C58.9121 80.4928 59.9763 80.3386 61.0406 80.2087C62.1129 80.0789 63.1934 80.0058 64.2738 80.1113C66.4429 80.3061 68.4169 80.931 70.0904 82.2296C73.2668 84.6968 74.2985 87.9025 73.0962 91.6358C72.162 94.5413 70.0579 97.041 67.6533 99.1835C61.7961 104.402 53.8998 107.77 45.6541 108.59C40.2031 109.125 34.6952 108.582 29.2279 108.809C25.1741 108.979 21.1529 109.58 17.1478 110.172C12.5742 110.854 8.0086 111.536 3.43492 112.209C2.84189 112.299 2.22448 112.388 1.64769 112.226C0.550983 111.925 -0.0420523 110.805 0.00669034 109.783C0.0554329 108.76 0.615973 107.827 1.15214 106.926C3.95484 102.259 6.72505 97.5766 9.64148 92.9587C10.5757 91.4897 11.6643 90.11 12.8341 88.779C13.7521 87.7402 14.6295 86.6689 15.5231 85.6139C16.701 84.226 17.9115 82.8626 18.9594 81.3936C19.4712 80.6713 19.918 79.9165 20.3973 79.1699C21.1204 78.0418 21.7946 76.8893 22.5745 75.8018C23.5412 74.4465 24.6948 73.2047 25.9296 72.0279C27.9118 70.1288 30.2271 68.6112 32.6236 67.1747C33.7366 66.5092 34.8658 65.868 35.9787 65.2025C38.7083 63.5794 41.6166 62.2646 44.6793 61.2258C45.9872 60.7794 47.3195 60.3411 48.7331 60.2925C50.4797 60.2275 52.2344 60.1626 53.9729 60.3655C54.574 60.4385 55.1671 60.5846 55.7682 60.6982C56.1663 60.7713 56.5644 60.8606 56.9624 60.9174C57.4499 60.9823 57.8479 61.1446 58.116 61.5342C58.2541 61.729 58.4491 61.8913 58.6359 62.0536C59.9926 63.2628 60.6425 64.6912 60.4475 66.4118C60.3013 67.6779 60.082 68.9358 59.6108 70.137C59.3996 70.6726 59.1152 71.1839 58.8146 71.6871C58.376 72.4175 57.9129 73.1398 57.4336 73.854C57.133 74.3004 56.7756 74.7062 56.4831 75.1525C55.6626 76.3862 54.6878 77.5061 53.5098 78.4882C53.1524 78.7884 52.8355 79.1374 52.5593 79.5026C51.9582 80.2736 51.2352 80.9391 50.4634 81.5722C50.4065 81.6209 50.3984 81.702 50.3334 81.8319H50.3416Z" fill="#F1B9AA"/>
<path d="M67.6459 59.278C66.7197 58.9209 67.0609 58.231 66.5735 57.671C66.2729 57.322 65.7855 56.7052 65.5012 56.4942C65.3143 56.2913 64.7051 55.3012 64.5182 55.0983C63.9577 54.4734 63.7708 54.2056 63.3159 53.5076C62.0973 51.6328 60.4726 50.2775 59.0428 48.5326C58.3848 47.7291 58.1979 46.7714 57.6293 45.9436C57.0606 45.1158 56.2076 44.3205 55.5414 43.5657C53.2018 40.928 51.0977 37.9739 48.9693 35.1902C44.9887 29.9879 42.6734 24.3474 42.909 18.0333C43.039 14.5597 43.1365 10.9968 44.6069 7.72617C44.9643 6.93081 45.3786 6.16793 45.9554 5.47808C46.5322 4.78823 46.654 4.772 47.6289 4.65026C49.0587 4.47172 49.2293 2.80797 50.9109 2.46711C54.656 1.98827 56.1101 3.4897 57.2556 3.78187C60.0176 4.49606 62.8691 5.21026 65.3387 6.55749C66.4842 7.1824 67.6459 7.8479 68.7101 8.57021C69.1894 8.89485 69.9774 9.85251 70.6273 9.8444C72.0327 9.82817 73.6656 5.91634 74.7217 4.9749C76.4277 3.46535 77.2157 2.96217 79.4253 2.2074C79.8559 2.06131 81.44 1.16046 81.8624 1.01437C82.5611 0.779012 83.146 0.998139 83.5278 0.868286C84.6976 0.568 85.6969 0.145977 86.9073 0.0485865C92.204 -0.365321 97.5332 1.16046 99.5398 5.96503C101.165 9.8444 101.701 14.3568 99.8647 18.2199C98.7761 20.5086 98.7274 22.57 98.1912 24.9236C97.6713 27.2042 96.7452 29.4117 96.274 31.7166C95.3723 36.1803 92.8133 40.8225 90.8961 45.0347C89.9456 47.1285 89.182 49.2874 88.1502 51.3488C86.9723 53.6943 85.2826 55.4229 83.2922 57.2733C82.3011 58.1985 81.1313 59.0832 80.3108 60.1382C79.4253 61.2744 78.9216 62.646 78.1011 63.8228C77.5 64.6912 76.647 65.3648 76.1189 66.2738C75.729 66.9474 75.7859 68.2784 74.6892 68.4245C72.4957 68.7167 71.9433 64.3098 71.3665 63.2628C70.871 62.362 70.0911 61.8913 69.3925 61.1121C68.8725 60.5359 68.6045 59.6269 67.6459 59.2617V59.278Z" fill="#F1B9AA"/>
<path d="M133.254 76.0536C131.971 75.8994 130.712 75.9481 129.453 76.2565C128.803 76.4188 128.136 76.5487 127.478 76.7029C126.731 76.8814 125.984 76.8652 125.236 76.7516C124.911 76.7029 124.595 76.7029 124.27 76.7516C123.246 76.8895 122.222 76.8814 121.199 76.6947C120.858 76.6298 120.5 76.6298 120.159 76.573C119.054 76.3701 117.941 76.1672 116.844 75.9481C115.228 75.6235 113.627 75.2339 112.003 74.9498C110.159 74.6252 108.298 74.3655 106.438 74.1139C104.927 73.911 103.505 73.5133 102.189 72.8235C101.474 72.4502 100.751 72.0849 100.069 71.671C98.7447 70.8676 97.6074 69.8937 96.9575 68.5627C96.6812 67.9946 96.4944 67.3859 96.3238 66.7772C95.942 65.4543 95.747 64.1071 95.8445 62.7355C95.8607 62.5164 95.8201 62.2891 95.7714 62.0781C95.682 61.7048 95.812 61.372 95.9907 61.0474C96.1207 60.8039 96.2588 60.5686 96.4132 60.3413C96.9168 59.5703 97.6317 58.986 98.5416 58.6045C98.9965 58.4098 99.4514 58.2312 99.8901 58.0121C100.304 57.8092 100.719 57.5901 101.027 57.2573C101.141 57.1356 101.296 57.0544 101.426 56.9489C101.872 56.5756 102.417 56.4539 103.01 56.4133C103.253 56.397 103.505 56.3808 103.749 56.3402C104.537 56.2266 105.309 56.324 106.056 56.5107C106.714 56.673 107.364 56.8272 108.046 56.8515C108.469 56.8678 108.891 56.9327 109.297 56.9814C109.403 56.8272 109.297 56.7379 109.216 56.673C108.574 56.1941 108.128 55.5692 107.583 55.0092C107.283 54.7008 107.12 54.3275 107.015 53.9298C106.893 53.4753 106.73 53.029 106.608 52.5745C106.349 51.5925 106.113 50.6104 106.446 49.6041C106.698 48.8331 106.95 48.0621 107.202 47.2911C107.226 47.2261 107.275 47.1693 107.275 47.1044C107.348 46.4714 107.77 46.0169 108.225 45.5543C108.859 44.9131 109.533 44.3288 110.362 43.8905C110.695 43.712 111.036 43.6146 111.434 43.6389C112.108 43.6876 112.783 43.6958 113.457 43.7607C114.277 43.8418 115.057 44.0366 115.748 44.4911C116.195 44.7833 116.633 45.0755 117.023 45.4244C117.381 45.7409 117.746 46.0331 118.169 46.2766C118.583 46.5201 118.957 46.8285 119.298 47.1531C119.891 47.7131 120.549 48.1676 121.28 48.5734C122.027 48.9873 122.783 49.3768 123.579 49.7177C124.123 49.945 124.603 50.2696 125.033 50.6591C125.399 50.9919 125.586 51.4058 125.781 51.8116C126.016 52.2985 126.406 52.6638 126.78 53.0371C127.129 53.3861 127.543 53.6782 127.893 54.0272C128.299 54.4249 128.673 54.8388 128.933 55.3257C129.631 56.6081 130.289 57.8985 131.199 59.0834C131.451 59.408 131.557 59.8138 131.743 60.179C131.865 60.4225 132.003 60.6579 132.158 60.8932C132.686 61.7291 133.141 62.5975 133.401 63.539C133.644 64.4236 133.912 65.3082 134.189 66.1929C134.311 66.5743 134.506 66.9476 134.635 67.3291C134.774 67.7105 134.895 68.1001 134.985 68.4896C135.22 69.496 135.464 70.4942 135.562 71.525C135.594 71.8577 135.651 72.1823 135.789 72.4989C136.025 73.0264 135.992 73.5945 136.008 74.1545C136.017 74.4061 135.878 74.6496 135.683 74.8768C135.196 75.4449 134.579 75.7614 133.799 75.8832C133.612 75.9156 133.441 76.0292 133.271 76.0942L133.254 76.0536Z" fill="#F1B9AA"/>
</g>
<defs>
<clipPath id="clip0_3170_3305">
<rect width="136" height="176" fill="white"/>
</clipPath>
</defs>
</svg>
